<mxfile><diagram name="Page-1" id="7RNCQt2wHfCoRPG7doAE"><mxGraphModel dx="1925" dy="1681" grid="1" gridSize="10" guides="1" tooltips="1" connect="1" arrows="1" fold="1" page="1" pageScale="1" pageWidth="827" pageHeight="1169" math="0" shadow="0"><root><mxCell id="0"/><mxCell id="1" parent="0"/><mxCell id="19" value="" style="whiteSpace=wrap;html=1;aspect=fixed;fillColor=none;" vertex="1" parent="1"><mxGeometry x="-376" y="80" width="90.5" height="90.5" as="geometry"/></mxCell><mxCell id="vsT03FMYi7_P-uipVstn-6" value="Chambre" style="swimlane;fontStyle=0;childLayout=stackLayout;horizontal=1;startSize=20;horizontalStack=0;resizeParent=1;resizeParentMax=0;resizeLast=0;collapsible=1;marginBottom=0;whiteSpace=wrap;html=1;" parent="1" vertex="1"><mxGeometry x="-223" y="90" width="140" height="110" as="geometry"/></mxCell><mxCell id="vsT03FMYi7_P-uipVstn-7" value="PK numC" style="text;strokeColor=none;fillColor=none;align=left;verticalAlign=middle;spacingLeft=4;spacingRight=4;overflow=hidden;points=[[0,0.5],[1,0.5]];portConstraint=eastwest;rotatable=0;whiteSpace=wrap;html=1;" parent="vsT03FMYi7_P-uipVstn-6" vertex="1"><mxGeometry y="20" width="140" height="30" as="geometry"/></mxCell><mxCell id="vsT03FMYi7_P-uipVstn-8" value="Capacité" style="text;strokeColor=none;fillColor=none;align=left;verticalAlign=middle;spacingLeft=4;spacingRight=4;overflow=hidden;points=[[0,0.5],[1,0.5]];portConstraint=eastwest;rotatable=0;whiteSpace=wrap;html=1;" parent="vsT03FMYi7_P-uipVstn-6" vertex="1"><mxGeometry y="50" width="140" height="30" as="geometry"/></mxCell><mxCell id="vsT03FMYi7_P-uipVstn-9" value="Superficie" style="text;strokeColor=none;fillColor=none;align=left;verticalAlign=middle;spacingLeft=4;spacingRight=4;overflow=hidden;points=[[0,0.5],[1,0.5]];portConstraint=eastwest;rotatable=0;whiteSpace=wrap;html=1;" parent="vsT03FMYi7_P-uipVstn-6" vertex="1"><mxGeometry y="80" width="140" height="30" as="geometry"/></mxCell><mxCell id="45" style="edgeStyle=none;html=1;entryX=0.329;entryY=1.048;entryDx=0;entryDy=0;entryPerimeter=0;endArrow=classic;endFill=1;exitX=0.165;exitY=-0.003;exitDx=0;exitDy=0;exitPerimeter=0;" edge="1" parent="1" source="vsT03FMYi7_P-uipVstn-49"><mxGeometry relative="1" as="geometry"><mxPoint x="138.50682836228566" y="379.5" as="sourcePoint"/><mxPoint x="121.05999999999995" y="251.44000000000005" as="targetPoint"/></mxGeometry></mxCell><mxCell id="vsT03FMYi7_P-uipVstn-10" value="Departemment" style="swimlane;fontStyle=0;childLayout=stackLayout;horizontal=1;startSize=20;horizontalStack=0;resizeParent=1;resizeParentMax=0;resizeLast=0;collapsible=1;marginBottom=0;whiteSpace=wrap;html=1;" parent="1" vertex="1"><mxGeometry x="111" y="379.5" width="140" height="110" as="geometry"/></mxCell><mxCell id="vsT03FMYi7_P-uipVstn-11" value="PK nomDep" style="text;strokeColor=none;fillColor=none;align=left;verticalAlign=middle;spacingLeft=4;spacingRight=4;overflow=hidden;points=[[0,0.5],[1,0.5]];portConstraint=eastwest;rotatable=0;whiteSpace=wrap;html=1;" parent="vsT03FMYi7_P-uipVstn-10" vertex="1"><mxGeometry y="20" width="140" height="30" as="geometry"/></mxCell><mxCell id="vsT03FMYi7_P-uipVstn-12" value="DirecteurDep" style="text;strokeColor=none;fillColor=none;align=left;verticalAlign=middle;spacingLeft=4;spacingRight=4;overflow=hidden;points=[[0,0.5],[1,0.5]];portConstraint=eastwest;rotatable=0;whiteSpace=wrap;html=1;" parent="vsT03FMYi7_P-uipVstn-10" vertex="1"><mxGeometry y="50" width="140" height="30" as="geometry"/></mxCell><mxCell id="vsT03FMYi7_P-uipVstn-13" value="TelDep" style="text;strokeColor=none;fillColor=none;align=left;verticalAlign=middle;spacingLeft=4;spacingRight=4;overflow=hidden;points=[[0,0.5],[1,0.5]];portConstraint=eastwest;rotatable=0;whiteSpace=wrap;html=1;" parent="vsT03FMYi7_P-uipVstn-10" vertex="1"><mxGeometry y="80" width="140" height="30" as="geometry"/></mxCell><mxCell id="vsT03FMYi7_P-uipVstn-14" value="Personne" style="swimlane;fontStyle=0;childLayout=stackLayout;horizontal=1;startSize=20;horizontalStack=0;resizeParent=1;resizeParentMax=0;resizeLast=0;collapsible=1;marginBottom=0;whiteSpace=wrap;html=1;" parent="1" vertex="1"><mxGeometry x="30" y="-467" width="140" height="140" as="geometry"/></mxCell><mxCell id="vsT03FMYi7_P-uipVstn-15" value="PK IdPers" style="text;strokeColor=none;fillColor=none;align=left;verticalAlign=middle;spacingLeft=4;spacingRight=4;overflow=hidden;points=[[0,0.5],[1,0.5]];portConstraint=eastwest;rotatable=0;whiteSpace=wrap;html=1;" parent="vsT03FMYi7_P-uipVstn-14" vertex="1"><mxGeometry y="20" width="140" height="30" as="geometry"/></mxCell><mxCell id="vsT03FMYi7_P-uipVstn-16" value="NomPers&lt;br&gt;" style="text;strokeColor=none;fillColor=none;align=left;verticalAlign=middle;spacingLeft=4;spacingRight=4;overflow=hidden;points=[[0,0.5],[1,0.5]];portConstraint=eastwest;rotatable=0;whiteSpace=wrap;html=1;" parent="vsT03FMYi7_P-uipVstn-14" vertex="1"><mxGeometry y="50" width="140" height="30" as="geometry"/></mxCell><mxCell id="vsT03FMYi7_P-uipVstn-17" value="AdressePers" style="text;strokeColor=none;fillColor=none;align=left;verticalAlign=middle;spacingLeft=4;spacingRight=4;overflow=hidden;points=[[0,0.5],[1,0.5]];portConstraint=eastwest;rotatable=0;whiteSpace=wrap;html=1;" parent="vsT03FMYi7_P-uipVstn-14" vertex="1"><mxGeometry y="80" width="140" height="30" as="geometry"/></mxCell><mxCell id="vsT03FMYi7_P-uipVstn-56" value="DateNaissancePers" style="text;strokeColor=none;fillColor=none;align=left;verticalAlign=middle;spacingLeft=4;spacingRight=4;overflow=hidden;points=[[0,0.5],[1,0.5]];portConstraint=eastwest;rotatable=0;whiteSpace=wrap;html=1;" parent="vsT03FMYi7_P-uipVstn-14" vertex="1"><mxGeometry y="110" width="140" height="30" as="geometry"/></mxCell><mxCell id="12" style="edgeStyle=none;html=1;endArrow=none;endFill=0;" edge="1" parent="1" source="vsT03FMYi7_P-uipVstn-18"><mxGeometry relative="1" as="geometry"><mxPoint x="100" y="-230" as="targetPoint"/><Array as="points"><mxPoint x="190" y="-180"/><mxPoint x="100" y="-180"/></Array></mxGeometry></mxCell><mxCell id="vsT03FMYi7_P-uipVstn-18" value="Personnel" style="swimlane;fontStyle=0;childLayout=stackLayout;horizontal=1;startSize=20;horizontalStack=0;resizeParent=1;resizeParentMax=0;resizeLast=0;collapsible=1;marginBottom=0;whiteSpace=wrap;html=1;" parent="1" vertex="1"><mxGeometry x="120" y="-100" width="140" height="80" as="geometry"/></mxCell><mxCell id="vsT03FMYi7_P-uipVstn-19" value="Fonction" style="text;strokeColor=none;fillColor=none;align=left;verticalAlign=middle;spacingLeft=4;spacingRight=4;overflow=hidden;points=[[0,0.5],[1,0.5]];portConstraint=eastwest;rotatable=0;whiteSpace=wrap;html=1;" parent="vsT03FMYi7_P-uipVstn-18" vertex="1"><mxGeometry y="20" width="140" height="30" as="geometry"/></mxCell><mxCell id="vsT03FMYi7_P-uipVstn-21" value="Departement" style="text;strokeColor=none;fillColor=none;align=left;verticalAlign=middle;spacingLeft=4;spacingRight=4;overflow=hidden;points=[[0,0.5],[1,0.5]];portConstraint=eastwest;rotatable=0;whiteSpace=wrap;html=1;" parent="vsT03FMYi7_P-uipVstn-18" vertex="1"><mxGeometry y="50" width="140" height="30" as="geometry"/></mxCell><mxCell id="11" style="edgeStyle=none;html=1;entryX=0.5;entryY=1;entryDx=0;entryDy=0;endArrow=none;endFill=0;" edge="1" parent="1" source="vsT03FMYi7_P-uipVstn-23" target="9"><mxGeometry relative="1" as="geometry"><Array as="points"><mxPoint y="-180"/><mxPoint x="100" y="-180"/></Array></mxGeometry></mxCell><mxCell id="vsT03FMYi7_P-uipVstn-23" value="Client" style="swimlane;fontStyle=0;childLayout=stackLayout;horizontal=1;startSize=20;horizontalStack=0;resizeParent=1;resizeParentMax=0;resizeLast=0;collapsible=1;marginBottom=0;whiteSpace=wrap;html=1;" parent="1" vertex="1"><mxGeometry x="-70" y="-100" width="140" height="50" as="geometry"/></mxCell><mxCell id="vsT03FMYi7_P-uipVstn-24" value="Nationnalité" style="text;strokeColor=none;fillColor=none;align=left;verticalAlign=middle;spacingLeft=4;spacingRight=4;overflow=hidden;points=[[0,0.5],[1,0.5]];portConstraint=eastwest;rotatable=0;whiteSpace=wrap;html=1;" parent="vsT03FMYi7_P-uipVstn-23" vertex="1"><mxGeometry y="20" width="140" height="30" as="geometry"/></mxCell><mxCell id="vsT03FMYi7_P-uipVstn-26" value="Reservation" style="swimlane;fontStyle=0;childLayout=stackLayout;horizontal=1;startSize=20;horizontalStack=0;resizeParent=1;resizeParentMax=0;resizeLast=0;collapsible=1;marginBottom=0;whiteSpace=wrap;html=1;" parent="1" vertex="1"><mxGeometry x="-580" y="78" width="140" height="140" as="geometry"/></mxCell><mxCell id="vsT03FMYi7_P-uipVstn-27" value="PK dateDebut" style="text;strokeColor=none;fillColor=none;align=left;verticalAlign=middle;spacingLeft=4;spacingRight=4;overflow=hidden;points=[[0,0.5],[1,0.5]];portConstraint=eastwest;rotatable=0;whiteSpace=wrap;html=1;" parent="vsT03FMYi7_P-uipVstn-26" vertex="1"><mxGeometry y="20" width="140" height="30" as="geometry"/></mxCell><mxCell id="vsT03FMYi7_P-uipVstn-28" value="PrixR" style="text;strokeColor=none;fillColor=none;align=left;verticalAlign=middle;spacingLeft=4;spacingRight=4;overflow=hidden;points=[[0,0.5],[1,0.5]];portConstraint=eastwest;rotatable=0;whiteSpace=wrap;html=1;" parent="vsT03FMYi7_P-uipVstn-26" vertex="1"><mxGeometry y="50" width="140" height="30" as="geometry"/></mxCell><mxCell id="vsT03FMYi7_P-uipVstn-29" value="DateFin" style="text;strokeColor=none;fillColor=none;align=left;verticalAlign=middle;spacingLeft=4;spacingRight=4;overflow=hidden;points=[[0,0.5],[1,0.5]];portConstraint=eastwest;rotatable=0;whiteSpace=wrap;html=1;" parent="vsT03FMYi7_P-uipVstn-26" vertex="1"><mxGeometry y="80" width="140" height="30" as="geometry"/></mxCell><mxCell id="vsT03FMYi7_P-uipVstn-30" value="NbAcomp" style="text;strokeColor=none;fillColor=none;align=left;verticalAlign=middle;spacingLeft=4;spacingRight=4;overflow=hidden;points=[[0,0.5],[1,0.5]];portConstraint=eastwest;rotatable=0;whiteSpace=wrap;html=1;" parent="vsT03FMYi7_P-uipVstn-26" vertex="1"><mxGeometry y="110" width="140" height="30" as="geometry"/></mxCell><mxCell id="vsT03FMYi7_P-uipVstn-32" value="Service" style="swimlane;fontStyle=0;childLayout=stackLayout;horizontal=1;startSize=20;horizontalStack=0;resizeParent=1;resizeParentMax=0;resizeLast=0;collapsible=1;marginBottom=0;whiteSpace=wrap;html=1;" parent="1" vertex="1"><mxGeometry x="-226" y="399.5" width="140" height="200" as="geometry"/></mxCell><mxCell id="vsT03FMYi7_P-uipVstn-33" value="PK date" style="text;strokeColor=none;fillColor=none;align=left;verticalAlign=middle;spacingLeft=4;spacingRight=4;overflow=hidden;points=[[0,0.5],[1,0.5]];portConstraint=eastwest;rotatable=0;whiteSpace=wrap;html=1;" parent="vsT03FMYi7_P-uipVstn-32" vertex="1"><mxGeometry y="20" width="140" height="30" as="geometry"/></mxCell><mxCell id="vsT03FMYi7_P-uipVstn-34" value="PrixS" style="text;strokeColor=none;fillColor=none;align=left;verticalAlign=middle;spacingLeft=4;spacingRight=4;overflow=hidden;points=[[0,0.5],[1,0.5]];portConstraint=eastwest;rotatable=0;whiteSpace=wrap;html=1;" parent="vsT03FMYi7_P-uipVstn-32" vertex="1"><mxGeometry y="50" width="140" height="30" as="geometry"/></mxCell><mxCell id="vsT03FMYi7_P-uipVstn-35" value="QuantitéS" style="text;strokeColor=none;fillColor=none;align=left;verticalAlign=middle;spacingLeft=4;spacingRight=4;overflow=hidden;points=[[0,0.5],[1,0.5]];portConstraint=eastwest;rotatable=0;whiteSpace=wrap;html=1;" parent="vsT03FMYi7_P-uipVstn-32" vertex="1"><mxGeometry y="80" width="140" height="30" as="geometry"/></mxCell><mxCell id="vsT03FMYi7_P-uipVstn-36" value="Payé" style="text;strokeColor=none;fillColor=none;align=left;verticalAlign=middle;spacingLeft=4;spacingRight=4;overflow=hidden;points=[[0,0.5],[1,0.5]];portConstraint=eastwest;rotatable=0;whiteSpace=wrap;html=1;" parent="vsT03FMYi7_P-uipVstn-32" vertex="1"><mxGeometry y="110" width="140" height="30" as="geometry"/></mxCell><mxCell id="vsT03FMYi7_P-uipVstn-37" value="NomS" style="text;strokeColor=none;fillColor=none;align=left;verticalAlign=middle;spacingLeft=4;spacingRight=4;overflow=hidden;points=[[0,0.5],[1,0.5]];portConstraint=eastwest;rotatable=0;whiteSpace=wrap;html=1;" parent="vsT03FMYi7_P-uipVstn-32" vertex="1"><mxGeometry y="140" width="140" height="30" as="geometry"/></mxCell><mxCell id="50" value="numC" style="text;strokeColor=none;fillColor=none;align=left;verticalAlign=middle;spacingLeft=4;spacingRight=4;overflow=hidden;points=[[0,0.5],[1,0.5]];portConstraint=eastwest;rotatable=0;whiteSpace=wrap;html=1;" vertex="1" parent="vsT03FMYi7_P-uipVstn-32"><mxGeometry y="170" width="140" height="30" as="geometry"/></mxCell><mxCell id="vsT03FMYi7_P-uipVstn-38" value="Hotel" style="swimlane;fontStyle=0;childLayout=stackLayout;horizontal=1;startSize=20;horizontalStack=0;resizeParent=1;resizeParentMax=0;resizeLast=0;collapsible=1;marginBottom=0;whiteSpace=wrap;html=1;" parent="1" vertex="1"><mxGeometry x="110" y="50" width="140" height="200" as="geometry"/></mxCell><mxCell id="vsT03FMYi7_P-uipVstn-39" value="PK codeH" style="text;strokeColor=none;fillColor=none;align=left;verticalAlign=middle;spacingLeft=4;spacingRight=4;overflow=hidden;points=[[0,0.5],[1,0.5]];portConstraint=eastwest;rotatable=0;whiteSpace=wrap;html=1;" parent="vsT03FMYi7_P-uipVstn-38" vertex="1"><mxGeometry y="20" width="140" height="30" as="geometry"/></mxCell><mxCell id="vsT03FMYi7_P-uipVstn-40" value="nomH" style="text;strokeColor=none;fillColor=none;align=left;verticalAlign=middle;spacingLeft=4;spacingRight=4;overflow=hidden;points=[[0,0.5],[1,0.5]];portConstraint=eastwest;rotatable=0;whiteSpace=wrap;html=1;" parent="vsT03FMYi7_P-uipVstn-38" vertex="1"><mxGeometry y="50" width="140" height="30" as="geometry"/></mxCell><mxCell id="vsT03FMYi7_P-uipVstn-41" value="addH" style="text;strokeColor=none;fillColor=none;align=left;verticalAlign=middle;spacingLeft=4;spacingRight=4;overflow=hidden;points=[[0,0.5],[1,0.5]];portConstraint=eastwest;rotatable=0;whiteSpace=wrap;html=1;" parent="vsT03FMYi7_P-uipVstn-38" vertex="1"><mxGeometry y="80" width="140" height="30" as="geometry"/></mxCell><mxCell id="vsT03FMYi7_P-uipVstn-42" value="GPS" style="text;strokeColor=none;fillColor=none;align=left;verticalAlign=middle;spacingLeft=4;spacingRight=4;overflow=hidden;points=[[0,0.5],[1,0.5]];portConstraint=eastwest;rotatable=0;whiteSpace=wrap;html=1;" parent="vsT03FMYi7_P-uipVstn-38" vertex="1"><mxGeometry y="110" width="140" height="30" as="geometry"/></mxCell><mxCell id="vsT03FMYi7_P-uipVstn-43" value="nChambre" style="text;strokeColor=none;fillColor=none;align=left;verticalAlign=middle;spacingLeft=4;spacingRight=4;overflow=hidden;points=[[0,0.5],[1,0.5]];portConstraint=eastwest;rotatable=0;whiteSpace=wrap;html=1;" parent="vsT03FMYi7_P-uipVstn-38" vertex="1"><mxGeometry y="140" width="140" height="30" as="geometry"/></mxCell><mxCell id="vsT03FMYi7_P-uipVstn-44" value="Qualité" style="text;strokeColor=none;fillColor=none;align=left;verticalAlign=middle;spacingLeft=4;spacingRight=4;overflow=hidden;points=[[0,0.5],[1,0.5]];portConstraint=eastwest;rotatable=0;whiteSpace=wrap;html=1;" parent="vsT03FMYi7_P-uipVstn-38" vertex="1"><mxGeometry y="170" width="140" height="30" as="geometry"/></mxCell><mxCell id="vsT03FMYi7_P-uipVstn-72" style="edgeStyle=orthogonalEdgeStyle;rounded=0;orthogonalLoop=1;jettySize=auto;html=1;entryX=0;entryY=0.5;entryDx=0;entryDy=0;exitX=1.028;exitY=0.877;exitDx=0;exitDy=0;exitPerimeter=0;" parent="1" source="vsT03FMYi7_P-uipVstn-45" edge="1"><mxGeometry relative="1" as="geometry"><mxPoint x="10" y="191" as="sourcePoint"/><mxPoint x="110" y="191" as="targetPoint"/><Array as="points"><mxPoint x="110" y="194"/></Array></mxGeometry></mxCell><mxCell id="4" style="edgeStyle=none;html=1;entryX=0.5;entryY=0;entryDx=0;entryDy=0;endArrow=none;endFill=0;" edge="1" parent="1" source="vsT03FMYi7_P-uipVstn-45" target="vsT03FMYi7_P-uipVstn-85"><mxGeometry relative="1" as="geometry"/></mxCell><mxCell id="vsT03FMYi7_P-uipVstn-45" value="" style="swimlane;startSize=0;" parent="1" vertex="1"><mxGeometry x="-233" y="80" width="160" height="130" as="geometry"/></mxCell><mxCell id="3" style="edgeStyle=none;html=1;entryX=0.5;entryY=1;entryDx=0;entryDy=0;endArrow=none;endFill=0;" edge="1" parent="1" source="vsT03FMYi7_P-uipVstn-49" target="vsT03FMYi7_P-uipVstn-68"><mxGeometry relative="1" as="geometry"><Array as="points"><mxPoint x="370" y="435"/></Array></mxGeometry></mxCell><mxCell id="vsT03FMYi7_P-uipVstn-49" value="" style="swimlane;startSize=0;" parent="1" vertex="1"><mxGeometry x="101" y="369.5" width="160" height="130" as="geometry"/></mxCell><mxCell id="36" style="edgeStyle=none;html=1;entryX=0;entryY=0.5;entryDx=0;entryDy=0;endArrow=none;endFill=0;" edge="1" parent="1" source="vsT03FMYi7_P-uipVstn-59" target="33"><mxGeometry relative="1" as="geometry"/></mxCell><mxCell id="40" style="edgeStyle=none;html=1;entryX=-0.042;entryY=0.834;entryDx=0;entryDy=0;entryPerimeter=0;endArrow=classicThin;endFill=1;" edge="1" parent="1" source="vsT03FMYi7_P-uipVstn-59" target="vsT03FMYi7_P-uipVstn-49"><mxGeometry relative="1" as="geometry"/></mxCell><mxCell id="vsT03FMYi7_P-uipVstn-59" value="" style="swimlane;startSize=0;" parent="1" vertex="1"><mxGeometry x="-236" y="389.5" width="160" height="220.5" as="geometry"/></mxCell><mxCell id="vsT03FMYi7_P-uipVstn-62" style="edgeStyle=orthogonalEdgeStyle;rounded=0;orthogonalLoop=1;jettySize=auto;html=1;entryX=0;entryY=0.5;entryDx=0;entryDy=0;exitX=1.019;exitY=0.826;exitDx=0;exitDy=0;exitPerimeter=0;" parent="1" source="vsT03FMYi7_P-uipVstn-61" edge="1"><mxGeometry relative="1" as="geometry"><mxPoint x="-343" y="200" as="sourcePoint"/><mxPoint x="-236" y="200" as="targetPoint"/></mxGeometry></mxCell><mxCell id="vsT03FMYi7_P-uipVstn-61" value="" style="swimlane;startSize=0;" parent="1" vertex="1"><mxGeometry x="-590" y="68" width="160" height="160" as="geometry"/></mxCell><mxCell id="vsT03FMYi7_P-uipVstn-65" style="edgeStyle=orthogonalEdgeStyle;rounded=0;orthogonalLoop=1;jettySize=auto;html=1;exitX=0.5;exitY=1;exitDx=0;exitDy=0;entryX=0.5;entryY=0;entryDx=0;entryDy=0;endArrow=none;endFill=0;" parent="1" source="vsT03FMYi7_P-uipVstn-63" target="vsT03FMYi7_P-uipVstn-61" edge="1"><mxGeometry relative="1" as="geometry"/></mxCell><mxCell id="49" style="edgeStyle=none;html=1;entryX=0;entryY=0.5;entryDx=0;entryDy=0;endArrow=none;endFill=0;" edge="1" parent="1" source="vsT03FMYi7_P-uipVstn-63" target="vsT03FMYi7_P-uipVstn-24"><mxGeometry relative="1" as="geometry"/></mxCell><mxCell id="vsT03FMYi7_P-uipVstn-63" value="Reserve" style="rhombus;whiteSpace=wrap;html=1;" parent="1" vertex="1"><mxGeometry x="-373" y="-105" width="80" height="80" as="geometry"/></mxCell><mxCell id="vsT03FMYi7_P-uipVstn-68" value="Dirige" style="rhombus;whiteSpace=wrap;html=1;" parent="1" vertex="1"><mxGeometry x="334" y="65" width="80" height="80" as="geometry"/></mxCell><mxCell id="vsT03FMYi7_P-uipVstn-70" style="edgeStyle=orthogonalEdgeStyle;rounded=0;orthogonalLoop=1;jettySize=auto;html=1;exitX=1;exitY=0.5;exitDx=0;exitDy=0;entryX=0.5;entryY=0;entryDx=0;entryDy=0;endArrow=none;endFill=0;" parent="1" source="vsT03FMYi7_P-uipVstn-21" target="vsT03FMYi7_P-uipVstn-68" edge="1"><mxGeometry relative="1" as="geometry"/></mxCell><mxCell id="vsT03FMYi7_P-uipVstn-76" style="edgeStyle=orthogonalEdgeStyle;rounded=0;orthogonalLoop=1;jettySize=auto;html=1;exitX=0.5;exitY=0;exitDx=0;exitDy=0;entryX=0.5;entryY=1;entryDx=0;entryDy=0;entryPerimeter=0;startArrow=none;" parent="1" source="9" target="vsT03FMYi7_P-uipVstn-56" edge="1"><mxGeometry relative="1" as="geometry"><Array as="points"><mxPoint x="100" y="-327"/><mxPoint x="100" y="-327"/></Array></mxGeometry></mxCell><mxCell id="vsT03FMYi7_P-uipVstn-77" value="0,1" style="text;html=1;strokeColor=none;fillColor=none;align=center;verticalAlign=middle;whiteSpace=wrap;rounded=0;" parent="1" vertex="1"><mxGeometry x="330" y="-39" width="60" height="30" as="geometry"/></mxCell><mxCell id="vsT03FMYi7_P-uipVstn-80" value="1,1" style="text;html=1;strokeColor=none;fillColor=none;align=center;verticalAlign=middle;whiteSpace=wrap;rounded=0;" parent="1" vertex="1"><mxGeometry x="172" y="348" width="60" height="30" as="geometry"/></mxCell><mxCell id="vsT03FMYi7_P-uipVstn-84" value="1,1" style="text;html=1;strokeColor=none;fillColor=none;align=center;verticalAlign=middle;whiteSpace=wrap;rounded=0;" parent="1" vertex="1"><mxGeometry x="-521" y="37" width="60" height="30" as="geometry"/></mxCell><mxCell id="5" style="edgeStyle=none;html=1;entryX=0.5;entryY=0;entryDx=0;entryDy=0;endArrow=none;endFill=0;" edge="1" parent="1" source="vsT03FMYi7_P-uipVstn-85" target="vsT03FMYi7_P-uipVstn-59"><mxGeometry relative="1" as="geometry"/></mxCell><mxCell id="vsT03FMYi7_P-uipVstn-85" value="Commande" style="rhombus;whiteSpace=wrap;html=1;" parent="1" vertex="1"><mxGeometry x="-196" y="270" width="80" height="80" as="geometry"/></mxCell><mxCell id="6" value="0,n" style="text;html=1;strokeColor=none;fillColor=none;align=center;verticalAlign=middle;whiteSpace=wrap;rounded=0;" vertex="1" parent="1"><mxGeometry x="-153" y="210" width="60" height="30" as="geometry"/></mxCell><mxCell id="7" value="1,1" style="text;html=1;strokeColor=none;fillColor=none;align=center;verticalAlign=middle;whiteSpace=wrap;rounded=0;" vertex="1" parent="1"><mxGeometry x="-163" y="359.5" width="60" height="30" as="geometry"/></mxCell><mxCell id="9" value="IS_A" style="rhombus;whiteSpace=wrap;html=1;" vertex="1" parent="1"><mxGeometry x="60" y="-310" width="80" height="80" as="geometry"/></mxCell><mxCell id="13" value="T,E" style="text;html=1;strokeColor=none;fillColor=none;align=center;verticalAlign=middle;whiteSpace=wrap;rounded=0;" vertex="1" parent="1"><mxGeometry x="92" y="-210" width="60" height="30" as="geometry"/></mxCell><mxCell id="22" style="edgeStyle=none;html=1;entryX=0.99;entryY=0.351;entryDx=0;entryDy=0;entryPerimeter=0;endArrow=none;endFill=0;" edge="1" parent="1" source="21" target="vsT03FMYi7_P-uipVstn-61"><mxGeometry relative="1" as="geometry"/></mxCell><mxCell id="23" style="edgeStyle=none;html=1;entryX=-0.028;entryY=0.331;entryDx=0;entryDy=0;entryPerimeter=0;endArrow=none;endFill=0;" edge="1" parent="1" source="21" target="vsT03FMYi7_P-uipVstn-45"><mxGeometry relative="1" as="geometry"/></mxCell><mxCell id="21" value="Reservation de" style="rhombus;whiteSpace=wrap;html=1;fillColor=none;" vertex="1" parent="1"><mxGeometry x="-376" y="80" width="93" height="90.5" as="geometry"/></mxCell><mxCell id="24" value="1,1" style="text;html=1;strokeColor=none;fillColor=none;align=center;verticalAlign=middle;whiteSpace=wrap;rounded=0;" vertex="1" parent="1"><mxGeometry x="-445" y="94" width="60" height="30" as="geometry"/></mxCell><mxCell id="25" value="0,n" style="text;html=1;strokeColor=none;fillColor=none;align=center;verticalAlign=middle;whiteSpace=wrap;rounded=0;" vertex="1" parent="1"><mxGeometry x="-281" y="97" width="60" height="30" as="geometry"/></mxCell><mxCell id="26" value="" style="whiteSpace=wrap;html=1;aspect=fixed;fillColor=none;" vertex="1" parent="1"><mxGeometry x="-33" y="78" width="90.5" height="90.5" as="geometry"/></mxCell><mxCell id="28" style="edgeStyle=none;html=1;entryX=1.018;entryY=0.32;entryDx=0;entryDy=0;entryPerimeter=0;endArrow=none;endFill=0;" edge="1" parent="1" source="27" target="vsT03FMYi7_P-uipVstn-45"><mxGeometry relative="1" as="geometry"/></mxCell><mxCell id="29" style="edgeStyle=none;html=1;entryX=0.006;entryY=0.747;entryDx=0;entryDy=0;entryPerimeter=0;endArrow=none;endFill=0;" edge="1" parent="1" source="27" target="vsT03FMYi7_P-uipVstn-40"><mxGeometry relative="1" as="geometry"/></mxCell><mxCell id="27" value="Se trouve" style="rhombus;whiteSpace=wrap;html=1;fillColor=none;" vertex="1" parent="1"><mxGeometry x="-33" y="78" width="93" height="90.5" as="geometry"/></mxCell><mxCell id="30" value="1,1" style="text;html=1;strokeColor=none;fillColor=none;align=center;verticalAlign=middle;whiteSpace=wrap;rounded=0;" vertex="1" parent="1"><mxGeometry x="-80" y="88" width="60" height="30" as="geometry"/></mxCell><mxCell id="31" value="0,n" style="text;html=1;strokeColor=none;fillColor=none;align=center;verticalAlign=middle;whiteSpace=wrap;rounded=0;" vertex="1" parent="1"><mxGeometry x="48" y="86" width="60" height="30" as="geometry"/></mxCell><mxCell id="33" value="" style="whiteSpace=wrap;html=1;aspect=fixed;fillColor=none;" vertex="1" parent="1"><mxGeometry x="-35.5" y="379.5" width="90.5" height="90.5" as="geometry"/></mxCell><mxCell id="37" style="edgeStyle=none;html=1;entryX=-0.025;entryY=0.41;entryDx=0;entryDy=0;entryPerimeter=0;endArrow=none;endFill=0;" edge="1" parent="1" source="34" target="vsT03FMYi7_P-uipVstn-49"><mxGeometry relative="1" as="geometry"/></mxCell><mxCell id="34" value="Service de" style="rhombus;whiteSpace=wrap;html=1;fillColor=none;" vertex="1" parent="1"><mxGeometry x="-35.5" y="379.5" width="93" height="90.5" as="geometry"/></mxCell><mxCell id="38" value="1,1" style="text;html=1;strokeColor=none;fillColor=none;align=center;verticalAlign=middle;whiteSpace=wrap;rounded=0;" vertex="1" parent="1"><mxGeometry x="-93" y="401.5" width="60" height="30" as="geometry"/></mxCell><mxCell id="39" value="0,n" style="text;html=1;strokeColor=none;fillColor=none;align=center;verticalAlign=middle;whiteSpace=wrap;rounded=0;" vertex="1" parent="1"><mxGeometry x="51" y="389.5" width="60" height="30" as="geometry"/></mxCell><mxCell id="43" style="edgeStyle=none;html=1;entryX=0.529;entryY=0.961;entryDx=0;entryDy=0;entryPerimeter=0;endArrow=none;endFill=0;" edge="1" parent="1" source="41" target="vsT03FMYi7_P-uipVstn-44"><mxGeometry relative="1" as="geometry"/></mxCell><mxCell id="41" value="" style="whiteSpace=wrap;html=1;aspect=fixed;fillColor=none;" vertex="1" parent="1"><mxGeometry x="140" y="264.75" width="90.5" height="90.5" as="geometry"/></mxCell><mxCell id="44" style="edgeStyle=none;html=1;entryX=0.533;entryY=0.003;entryDx=0;entryDy=0;entryPerimeter=0;endArrow=none;endFill=0;" edge="1" parent="1" source="42" target="vsT03FMYi7_P-uipVstn-49"><mxGeometry relative="1" as="geometry"/></mxCell><mxCell id="42" value="Département de" style="rhombus;whiteSpace=wrap;html=1;fillColor=none;" vertex="1" parent="1"><mxGeometry x="140" y="264.75" width="93" height="90.5" as="geometry"/></mxCell><mxCell id="46" value="1,1" style="text;html=1;strokeColor=none;fillColor=none;align=center;verticalAlign=middle;whiteSpace=wrap;rounded=0;" vertex="1" parent="1"><mxGeometry x="257" y="443" width="60" height="30" as="geometry"/></mxCell><mxCell id="47" value="1,1" style="text;html=1;strokeColor=none;fillColor=none;align=center;verticalAlign=middle;whiteSpace=wrap;rounded=0;" vertex="1" parent="1"><mxGeometry x="171" y="241" width="60" height="30" as="geometry"/></mxCell><mxCell id="vsT03FMYi7_P-uipVstn-82" value="0,n" style="text;html=1;strokeColor=none;fillColor=none;align=center;verticalAlign=middle;whiteSpace=wrap;rounded=0;" parent="1" vertex="1"><mxGeometry x="-130" y="-55" width="60" height="30" as="geometry"/></mxCell></root></mxGraphModel></diagram></mxfile>